<?xml version="1.0" encoding="UTF-8"?>
<svg id="Camada_1" data-name="Camada 1" xmlns="http://www.w3.org/2000/svg" viewBox="0 0 360.41 310.22">
  <defs>
    <style>
      .cls-1 {
        fill: #fff;
        stroke-width: 0px;
      }
    </style>
  </defs>
  <path class="cls-1" d="M45.37,105.5c12.49,0,24.99-.19,37.47.12,3.61.09,4.83-1.23,5.89-4.35,6.85-20.15,13.85-40.26,20.88-60.35,8.47-24.17,27.85-37.97,53.35-38.05,11.49-.04,22.98-.03,34.48,0,25.53.08,44.92,13.86,53.36,38.02,7.03,20.09,14.06,40.19,20.84,60.36,1.16,3.46,2.76,4.36,6.28,4.33,25.23-.17,50.46-.03,75.7-.17,3.04-.02,3.76.87,3.58,3.7-.24,3.73-.26,7.51,0,11.23.19,2.77-.83,3.34-3.36,3.19-3.61-.22-7.25.11-10.86-.11-2.66-.16-3.79.54-4.34,3.4-5.23,27.18-10.63,54.32-16,81.47-4.17,21.03-8.03,42.13-12.65,63.06-4.84,21.93-22.52,35.73-45.07,35.81-32.48.11-64.95.03-97.43.03-22.86,0-45.73-.48-68.57.13-24.18.65-44.87-13.69-49.97-41.35-8.54-46.34-18.08-92.5-27.07-138.76-.6-3.1-1.72-4.08-4.79-3.81-3.47.3-7.01-.17-10.48.14-2.99.27-3.56-.88-3.38-3.55.23-3.48.26-7.01,0-10.49-.24-3.11.43-4.21,3.92-4.14,12.74.26,25.48.1,38.22.1ZM106.28,105.4h147.5c-.09-.73-.06-1.37-.25-1.93-6.82-19.64-13.46-39.35-20.58-58.89-5.35-14.68-18.4-23.53-34.01-23.68-12.24-.12-24.49-.08-36.73-.02-16.71.09-29.68,9.27-35.28,25.1-5.36,15.14-10.55,30.34-15.81,45.52-1.58,4.55-3.16,9.11-4.83,13.9ZM170.91,206.42c0,15.74.05,31.47-.05,47.21-.02,2.46.65,3.26,3.14,3.12,3.73-.21,7.5-.24,11.23,0,2.91.19,3.79-.65,3.77-3.68-.14-22.23-.07-44.46-.07-66.7,0-9.12-.08-18.24.05-27.35.04-2.49-.72-3.24-3.18-3.11-3.86.21-7.75.22-11.61,0-2.61-.15-3.36.65-3.34,3.29.12,15.74.06,31.47.06,47.21ZM107.03,206.02c0,13.36.05,26.73-.05,40.09-.02,2.37.5,3.36,3.09,3.22,3.98-.22,8-.24,11.98,0,2.65.16,3.05-.91,3.04-3.22-.07-26.6-.06-53.21,0-79.81,0-2.18-.41-3.12-2.85-2.99-3.98.22-8,.23-11.98,0-2.71-.16-3.31.8-3.28,3.36.12,13.11.06,26.23.06,39.34ZM234.73,206.41c0,13.24.05,26.48-.05,39.72-.02,2.36.46,3.35,3.07,3.21,3.98-.23,7.99-.16,11.98-.02,2.15.07,3.08-.36,3.07-2.83-.09-26.85-.07-53.71-.02-80.56,0-1.92-.5-2.65-2.52-2.58-4.12.14-8.25.22-12.36-.02-2.75-.16-3.25.87-3.23,3.38.12,13.24.05,26.48.05,39.72Z"/>
</svg>